<svg width="155" height="69" viewBox="0 0 155 69" fill="none" xmlns="http://www.w3.org/2000/svg">
<path d="M9.63068 63H1.89631V41.1818H9.6946C11.8892 41.1818 13.7784 41.6186 15.3622 42.4922C16.946 43.3587 18.1641 44.6051 19.0163 46.2315C19.8757 47.858 20.3054 49.804 20.3054 52.0696C20.3054 54.3423 19.8757 56.2955 19.0163 57.929C18.1641 59.5625 16.9389 60.8161 15.3409 61.6896C13.75 62.5632 11.8466 63 9.63068 63ZM6.50923 59.0476H9.43892C10.8026 59.0476 11.9496 58.8061 12.88 58.3232C13.8175 57.8331 14.5206 57.0767 14.9893 56.054C15.4652 55.0241 15.7031 53.696 15.7031 52.0696C15.7031 50.4574 15.4652 49.1399 14.9893 48.1172C14.5206 47.0945 13.821 46.3416 12.8906 45.8587C11.9602 45.3757 10.8132 45.1342 9.44957 45.1342H6.50923V59.0476ZM31.0307 63.3196C29.3759 63.3196 27.9448 62.968 26.7374 62.2649C25.5371 61.5547 24.6103 60.5675 23.9569 59.3033C23.3034 58.032 22.9767 56.5582 22.9767 54.8821C22.9767 53.1918 23.3034 51.7145 23.9569 50.4503C24.6103 49.179 25.5371 48.1918 26.7374 47.4886C27.9448 46.7784 29.3759 46.4233 31.0307 46.4233C32.6855 46.4233 34.1131 46.7784 35.3134 47.4886C36.5208 48.1918 37.4512 49.179 38.1046 50.4503C38.758 51.7145 39.0847 53.1918 39.0847 54.8821C39.0847 56.5582 38.758 58.032 38.1046 59.3033C37.4512 60.5675 36.5208 61.5547 35.3134 62.2649C34.1131 62.968 32.6855 63.3196 31.0307 63.3196ZM31.052 59.804C31.8049 59.804 32.4334 59.5909 32.9377 59.1648C33.4419 58.7315 33.8219 58.142 34.0776 57.3963C34.3404 56.6506 34.4718 55.8018 34.4718 54.8501C34.4718 53.8984 34.3404 53.0497 34.0776 52.304C33.8219 51.5582 33.4419 50.9687 32.9377 50.5355C32.4334 50.1023 31.8049 49.8857 31.052 49.8857C30.2921 49.8857 29.6529 50.1023 29.1344 50.5355C28.623 50.9687 28.236 51.5582 27.9732 52.304C27.7175 53.0497 27.5897 53.8984 27.5897 54.8501C27.5897 55.8018 27.7175 56.6506 27.9732 57.3963C28.236 58.142 28.623 58.7315 29.1344 59.1648C29.6529 59.5909 30.2921 59.804 31.052 59.804ZM49.4292 63.3196C47.753 63.3196 46.3113 62.9645 45.1039 62.2543C43.9036 61.5369 42.9803 60.5426 42.334 59.2713C41.6948 58 41.3752 56.5369 41.3752 54.8821C41.3752 53.206 41.6983 51.7358 42.3446 50.4716C42.998 49.2003 43.9249 48.2095 45.1252 47.4993C46.3255 46.782 47.753 46.4233 49.4078 46.4233C50.8354 46.4233 52.0854 46.6825 53.1578 47.201C54.2303 47.7195 55.079 48.4474 55.704 49.3849C56.329 50.3224 56.6735 51.4233 56.7374 52.6875H52.4547C52.334 51.8707 52.0144 51.2138 51.4959 50.7166C50.9846 50.2124 50.3134 49.9602 49.4824 49.9602C48.7793 49.9602 48.165 50.152 47.6394 50.5355C47.1209 50.9119 46.7161 51.4624 46.4249 52.1868C46.1337 52.9112 45.9881 53.7884 45.9881 54.8182C45.9881 55.8622 46.1301 56.75 46.4142 57.4815C46.7054 58.2131 47.1138 58.7706 47.6394 59.1541C48.165 59.5376 48.7793 59.7294 49.4824 59.7294C50.0009 59.7294 50.4661 59.6229 50.878 59.4098C51.2971 59.1967 51.6415 58.8878 51.9114 58.483C52.1884 58.071 52.3695 57.5774 52.4547 57.0021H56.7374C56.6664 58.2521 56.3255 59.353 55.7147 60.3047C55.111 61.2493 54.2765 61.9879 53.2111 62.5206C52.1458 63.0533 50.8851 63.3196 49.4292 63.3196ZM70.1367 56.0327V46.6364H74.6751V63H70.3178V60.0277H70.1474C69.7781 60.9865 69.1637 61.7571 68.3043 62.3395C67.4521 62.9219 66.4116 63.2131 65.1829 63.2131C64.0891 63.2131 63.1268 62.9645 62.2958 62.4673C61.4648 61.9702 60.815 61.2635 60.3462 60.3473C59.8846 59.4311 59.6502 58.3338 59.6431 57.0554V46.6364H64.1815V56.2457C64.1886 57.2116 64.4478 57.9751 64.9592 58.5362C65.4705 59.0973 66.1559 59.3778 67.0153 59.3778C67.5621 59.3778 68.0735 59.2536 68.5494 59.005C69.0252 58.7493 69.4087 58.3729 69.6999 57.8757C69.9982 57.3786 70.1438 56.7642 70.1367 56.0327ZM78.3052 63V46.6364H82.6305V49.5234H82.8223C83.1632 48.5646 83.7314 47.8082 84.5268 47.2543C85.3223 46.7003 86.274 46.4233 87.3819 46.4233C88.5041 46.4233 89.4593 46.7038 90.2477 47.2649C91.036 47.8189 91.5616 48.5717 91.8244 49.5234H91.9949C92.3287 48.5859 92.9324 47.8366 93.8059 47.2756C94.6866 46.7074 95.7271 46.4233 96.9274 46.4233C98.4544 46.4233 99.6937 46.9098 100.645 47.8828C101.604 48.8487 102.084 50.2195 102.084 51.995V63H97.5559V52.8899C97.5559 51.9808 97.3145 51.299 96.8315 50.8445C96.3485 50.3899 95.7449 50.1626 95.0204 50.1626C94.1966 50.1626 93.5538 50.4254 93.0922 50.951C92.6305 51.4695 92.3997 52.1548 92.3997 53.0071V63H87.9998V52.794C87.9998 51.9915 87.769 51.3523 87.3074 50.8764C86.8528 50.4006 86.2527 50.1626 85.5069 50.1626C85.0027 50.1626 84.5481 50.2905 84.1433 50.5462C83.7456 50.7947 83.4295 51.1463 83.1951 51.6009C82.9608 52.0483 82.8436 52.5739 82.8436 53.1776V63H78.3052ZM113.126 63.3196C111.443 63.3196 109.994 62.9787 108.779 62.2969C107.572 61.608 106.642 60.6349 105.988 59.3778C105.335 58.1136 105.008 56.6186 105.008 54.8928C105.008 53.2095 105.335 51.7322 105.988 50.4609C106.642 49.1896 107.561 48.1989 108.747 47.4886C109.941 46.7784 111.34 46.4233 112.945 46.4233C114.024 46.4233 115.029 46.5973 115.96 46.9453C116.897 47.2862 117.714 47.8011 118.41 48.4901C119.113 49.179 119.66 50.0455 120.051 51.0895C120.441 52.1264 120.637 53.3409 120.637 54.733V55.9794H106.819V53.1669H116.365C116.365 52.5135 116.222 51.9347 115.938 51.4304C115.654 50.9261 115.26 50.532 114.756 50.2479C114.259 49.9567 113.68 49.8111 113.019 49.8111C112.33 49.8111 111.72 49.9709 111.187 50.2905C110.661 50.603 110.249 51.0256 109.951 51.5582C109.653 52.0838 109.5 52.6697 109.493 53.3161V55.9901C109.493 56.7997 109.642 57.4993 109.941 58.0888C110.246 58.6783 110.676 59.1328 111.23 59.4524C111.784 59.772 112.441 59.9318 113.2 59.9318C113.705 59.9318 114.166 59.8608 114.585 59.7188C115.004 59.5767 115.363 59.3636 115.661 59.0795C115.96 58.7955 116.187 58.4474 116.343 58.0355L120.541 58.3125C120.328 59.321 119.891 60.2017 119.23 60.9545C118.577 61.7003 117.732 62.2827 116.695 62.7017C115.665 63.1136 114.475 63.3196 113.126 63.3196ZM128.137 53.5398V63H123.598V46.6364H127.923V49.5234H128.115C128.477 48.5717 129.085 47.8189 129.937 47.2649C130.789 46.7038 131.823 46.4233 133.037 46.4233C134.173 46.4233 135.164 46.6719 136.009 47.169C136.855 47.6662 137.512 48.3764 137.98 49.2997C138.449 50.2159 138.683 51.3097 138.683 52.581V63H134.145V53.3906C134.152 52.3892 133.896 51.608 133.378 51.0469C132.86 50.4787 132.146 50.1946 131.237 50.1946C130.626 50.1946 130.086 50.326 129.617 50.5888C129.156 50.8516 128.794 51.2351 128.531 51.7393C128.275 52.2365 128.144 52.8366 128.137 53.5398ZM150.964 46.6364V50.0455H141.11V46.6364H150.964ZM143.347 42.7159H147.885V57.9716C147.885 58.3906 147.949 58.7173 148.077 58.9517C148.205 59.179 148.382 59.3388 148.61 59.4311C148.844 59.5234 149.114 59.5696 149.419 59.5696C149.632 59.5696 149.846 59.5518 150.059 59.5163C150.272 59.4737 150.435 59.4418 150.549 59.4205L151.262 62.7976C151.035 62.8686 150.716 62.9503 150.304 63.0426C149.892 63.142 149.391 63.2024 148.801 63.2237C147.708 63.2663 146.749 63.1207 145.925 62.7869C145.108 62.4531 144.473 61.9347 144.018 61.2315C143.564 60.5284 143.34 59.6406 143.347 58.5682V42.7159Z" fill="#FCBF49"/>
<path d="M101.071 23.9131C101.071 24.8115 100.91 25.5781 100.588 26.2129C100.266 26.8477 99.8701 27.3311 99.4014 27.6631H99.46C100.036 27.6631 100.559 27.5361 101.027 27.2822C101.506 27.0186 101.936 26.6865 102.316 26.2861C102.697 25.876 103.039 25.4219 103.342 24.9238C103.645 24.4258 103.913 23.9424 104.147 23.4736C104.196 23.3662 104.265 23.2832 104.353 23.2246C104.45 23.166 104.553 23.1367 104.66 23.1367C104.826 23.1367 104.958 23.1953 105.056 23.3125C105.153 23.4297 105.202 23.5566 105.202 23.6934C105.202 23.7715 105.188 23.8447 105.158 23.9131C104.904 24.4795 104.602 25.0508 104.25 25.627C103.898 26.1934 103.488 26.7061 103.02 27.165C102.551 27.624 102.023 27.9951 101.438 28.2783C100.852 28.5713 100.202 28.7178 99.4893 28.7178C98.9717 28.7178 98.4688 28.6348 97.9805 28.4688C97.4922 28.3125 97.0625 28.0635 96.6914 27.7217C96.5547 27.6143 96.4375 27.502 96.3398 27.3848C96.2422 27.2578 96.1641 27.1406 96.1055 27.0332C96.0859 27.0137 96.0762 26.9941 96.0762 26.9746C96.0176 26.8867 95.9883 26.7939 95.9883 26.6963C95.9883 26.5693 96.0322 26.4521 96.1201 26.3447C96.1299 26.3252 96.1396 26.3154 96.1494 26.3154C96.1592 26.3057 96.1689 26.2959 96.1787 26.2861C96.2764 26.1982 96.3838 26.1494 96.501 26.1396H96.5449C96.5938 26.1396 96.6279 26.1445 96.6475 26.1543C96.6572 26.1543 96.6621 26.1592 96.6621 26.1689C96.6719 26.1689 96.6816 26.1689 96.6914 26.1689C96.7207 26.1689 96.7549 26.1787 96.7939 26.1982C96.8037 26.208 96.8135 26.2129 96.8232 26.2129C96.9111 26.2715 96.9844 26.3447 97.043 26.4326C97.1113 26.5498 97.1895 26.6572 97.2773 26.7549C97.3555 26.833 97.4482 26.9062 97.5557 26.9746C97.6631 27.0332 97.7852 27.0625 97.9219 27.0625C98.166 27.0625 98.4102 26.9893 98.6543 26.8428C98.8984 26.6963 99.1182 26.4863 99.3135 26.2129C99.5088 25.9395 99.665 25.6074 99.7822 25.2168C99.9092 24.8262 99.9727 24.3916 99.9727 23.9131C99.9727 23.5615 99.9336 23.2637 99.8555 23.0195C99.7871 22.7656 99.6943 22.5605 99.5771 22.4043C99.4697 22.248 99.3525 22.1357 99.2256 22.0674C99.0986 21.9893 98.9766 21.9502 98.8594 21.9502C98.5957 21.9502 98.3271 22.0869 98.0537 22.3604C97.79 22.6338 97.5264 22.9805 97.2627 23.4004C96.999 23.8203 96.7354 24.2842 96.4717 24.792C96.2178 25.2998 95.959 25.793 95.6953 26.2715C95.6758 27.8535 95.6465 29.3623 95.6074 30.7979C95.5781 32.2334 95.5195 33.5664 95.4316 34.7969C95.3535 36.0273 95.2412 37.1406 95.0947 38.1367C94.9482 39.1328 94.748 39.9824 94.4941 40.6855C94.2402 41.3984 93.9277 41.9453 93.5566 42.3262C93.1855 42.707 92.7314 42.8975 92.1943 42.8975C92.0283 42.8975 91.8379 42.8633 91.623 42.7949C91.4082 42.7266 91.208 42.585 91.0225 42.3701C90.8369 42.165 90.6807 41.8672 90.5537 41.4766C90.4268 41.0859 90.3633 40.5635 90.3633 39.9092C90.3633 39.0791 90.4658 38.1172 90.6709 37.0234C90.876 35.9297 91.1689 34.7676 91.5498 33.5371C91.9209 32.3164 92.3652 31.0615 92.8828 29.7725C93.4004 28.4834 93.9717 27.2285 94.5967 26.0078C94.5967 25.666 94.5967 25.3291 94.5967 24.9971C94.6064 24.665 94.6113 24.3428 94.6113 24.0303C94.4844 24.1768 94.333 24.25 94.1572 24.25C93.9912 24.25 93.8594 24.1914 93.7617 24.0742C93.6641 23.957 93.6152 23.8301 93.6152 23.6934C93.6152 23.625 93.6299 23.5518 93.6592 23.4736C93.8936 22.9365 94.0742 22.4287 94.2012 21.9502C94.3281 21.4619 94.4209 21.0371 94.4795 20.6758C94.5479 20.3047 94.5869 20.0117 94.5967 19.7969C94.6064 19.582 94.6113 19.4697 94.6113 19.46C94.6113 19.3135 94.665 19.1865 94.7725 19.0791C94.8799 18.9717 95.0117 18.918 95.168 18.918C95.3145 18.918 95.4414 18.9717 95.5488 19.0791C95.6562 19.1768 95.71 19.3037 95.71 19.46V23.957C95.9346 23.5762 96.1592 23.2002 96.3838 22.8291C96.6084 22.458 96.8428 22.126 97.0869 21.833C97.3408 21.54 97.6094 21.3057 97.8926 21.1299C98.1855 20.9443 98.5078 20.8516 98.8594 20.8516C99.1914 20.8516 99.4941 20.9297 99.7676 21.0859C100.041 21.2422 100.275 21.457 100.471 21.7305C100.666 22.0039 100.812 22.3311 100.91 22.7119C101.018 23.083 101.071 23.4834 101.071 23.9131ZM94.5674 28.6152C94.0889 29.6895 93.6543 30.7686 93.2637 31.8525C92.8828 32.9365 92.5605 33.9814 92.2969 34.9873C92.0234 35.9932 91.8135 36.9355 91.667 37.8145C91.5205 38.6934 91.4473 39.4648 91.4473 40.1289C91.4473 40.2949 91.457 40.4756 91.4766 40.6709C91.4961 40.8662 91.5352 41.0469 91.5938 41.2129C91.6523 41.3789 91.7354 41.5156 91.8428 41.623C91.9502 41.7402 92.0918 41.7988 92.2676 41.7988C92.5898 41.7988 92.8682 41.5938 93.1025 41.1836C93.3369 40.7832 93.5322 40.2363 93.6885 39.543C93.8545 38.8594 93.9912 38.0684 94.0986 37.1699C94.2061 36.2812 94.2891 35.3486 94.3477 34.3721C94.416 33.3955 94.4648 32.4092 94.4941 31.4131C94.5234 30.4268 94.5479 29.4941 94.5674 28.6152ZM107.2 21.9795C107.161 22.2432 107.112 22.4922 107.054 22.7266C106.995 22.9512 106.937 23.1514 106.878 23.3271C106.829 23.4932 106.785 23.6299 106.746 23.7373C106.707 23.8447 106.683 23.9033 106.673 23.9131C106.575 24.1377 106.404 24.25 106.16 24.25C106.023 24.25 105.896 24.2012 105.779 24.1035C105.662 23.9961 105.604 23.8643 105.604 23.708C105.604 23.6494 105.613 23.6055 105.633 23.5762C105.652 23.5469 105.682 23.4883 105.721 23.4004C105.76 23.3125 105.809 23.166 105.867 22.9609C105.926 22.7559 105.999 22.4385 106.087 22.0088C105.921 22.0088 105.75 22.0039 105.574 21.9941C105.398 21.9844 105.237 21.9502 105.091 21.8916C104.935 21.833 104.808 21.7402 104.71 21.6133C104.612 21.4863 104.563 21.3105 104.563 21.0859C104.563 20.9199 104.612 20.6953 104.71 20.4121C104.798 20.1289 104.92 19.8506 105.076 19.5771C105.232 19.3037 105.408 19.0693 105.604 18.874C105.799 18.6689 105.994 18.5664 106.189 18.5664C106.414 18.5664 106.595 18.6494 106.731 18.8154C106.878 18.9814 106.99 19.1865 107.068 19.4307C107.146 19.665 107.2 19.9141 107.229 20.1777C107.269 20.4414 107.288 20.6709 107.288 20.8662C107.454 20.8662 107.615 20.8662 107.771 20.8662C107.938 20.8564 108.094 20.8516 108.24 20.8516C108.797 20.8516 109.222 20.9736 109.515 21.2178C109.808 21.4619 109.954 21.8623 109.954 22.4189C109.954 22.6436 109.939 22.8779 109.91 23.1221C109.881 23.3662 109.847 23.6201 109.808 23.8838C109.769 24.1377 109.734 24.3916 109.705 24.6455C109.676 24.8994 109.661 25.1484 109.661 25.3926C109.661 25.7441 109.71 26.0371 109.808 26.2715C109.905 26.4961 110.027 26.6768 110.174 26.8135C110.32 26.9502 110.477 27.0479 110.643 27.1064C110.809 27.1553 110.96 27.1797 111.097 27.1797C111.517 27.1797 111.912 27.043 112.283 26.7695C112.654 26.4961 112.996 26.1689 113.309 25.7881C113.621 25.3975 113.899 24.9873 114.144 24.5576C114.397 24.1279 114.607 23.752 114.773 23.4297C114.822 23.3418 114.891 23.2734 114.979 23.2246C115.066 23.1758 115.159 23.1514 115.257 23.1514C115.433 23.1514 115.569 23.21 115.667 23.3271C115.765 23.4346 115.813 23.5566 115.813 23.6934C115.813 23.791 115.794 23.8789 115.755 23.957C115.53 24.3574 115.267 24.8115 114.964 25.3193C114.671 25.8174 114.334 26.2861 113.953 26.7256C113.572 27.165 113.143 27.5361 112.664 27.8389C112.195 28.1416 111.678 28.293 111.111 28.293C110.76 28.293 110.428 28.2246 110.115 28.0879C109.803 27.9609 109.529 27.7754 109.295 27.5312C109.07 27.2773 108.89 26.9697 108.753 26.6084C108.616 26.2373 108.548 25.8223 108.548 25.3633C108.548 24.875 108.597 24.3916 108.694 23.9131C108.792 23.4248 108.841 22.9609 108.841 22.5215C108.841 22.3359 108.797 22.1992 108.709 22.1113C108.631 22.0137 108.45 21.9648 108.167 21.9648C108.03 21.9648 107.879 21.9648 107.713 21.9648C107.557 21.9648 107.386 21.9697 107.2 21.9795ZM106.219 20.8955C106.219 20.8271 106.214 20.7393 106.204 20.6318C106.204 20.5146 106.194 20.4023 106.175 20.2949C106.165 20.1875 106.146 20.0947 106.116 20.0166C106.097 19.9385 106.072 19.8994 106.043 19.8994C106.014 19.8994 105.975 19.9385 105.926 20.0166C105.887 20.085 105.843 20.1729 105.794 20.2803C105.745 20.3779 105.701 20.4854 105.662 20.6025C105.623 20.7197 105.594 20.8174 105.574 20.8955H106.219ZM118.031 26.3887C118.236 26.6719 118.5 26.9014 118.822 27.0771C119.145 27.2432 119.54 27.3262 120.009 27.3262C120.487 27.3262 120.922 27.2139 121.312 26.9893C121.703 26.7549 122.06 26.4521 122.382 26.0811C122.704 25.71 122.992 25.2949 123.246 24.8359C123.5 24.377 123.729 23.918 123.935 23.459C123.983 23.3516 124.052 23.2734 124.14 23.2246C124.228 23.166 124.325 23.1367 124.433 23.1367C124.599 23.1367 124.73 23.1953 124.828 23.3125C124.936 23.4297 124.989 23.5566 124.989 23.6934C124.989 23.7422 124.984 23.7861 124.975 23.8252C124.965 23.8545 124.95 23.8887 124.931 23.9277C124.257 25.4121 123.52 26.5303 122.719 27.2822C121.928 28.0342 121.029 28.4199 120.023 28.4395C119.379 28.4395 118.822 28.3125 118.354 28.0586C117.885 27.8145 117.499 27.4971 117.196 27.1064C116.894 26.7061 116.669 26.2568 116.522 25.7588C116.376 25.2607 116.303 24.7627 116.303 24.2646C116.303 23.7666 116.361 23.3076 116.479 22.8877C116.605 22.4678 116.781 22.1016 117.006 21.7891C117.24 21.4766 117.514 21.2324 117.826 21.0566C118.148 20.8809 118.5 20.793 118.881 20.793C119.105 20.793 119.325 20.8418 119.54 20.9395C119.765 21.0273 119.965 21.1592 120.141 21.335C120.316 21.501 120.458 21.7061 120.565 21.9502C120.673 22.1943 120.727 22.4727 120.727 22.7852C120.727 23.1855 120.658 23.5615 120.521 23.9131C120.385 24.2646 120.194 24.5918 119.95 24.8945C119.716 25.1973 119.433 25.4756 119.101 25.7295C118.769 25.9834 118.412 26.2031 118.031 26.3887ZM117.592 25.4365C117.895 25.3096 118.168 25.1484 118.412 24.9531C118.666 24.7578 118.881 24.543 119.057 24.3086C119.232 24.0742 119.369 23.8301 119.467 23.5762C119.564 23.3125 119.613 23.0488 119.613 22.7852C119.613 22.4922 119.54 22.2725 119.394 22.126C119.247 21.9697 119.076 21.8916 118.881 21.8916C118.617 21.8916 118.393 21.9648 118.207 22.1113C118.021 22.2578 117.87 22.4482 117.753 22.6826C117.636 22.917 117.548 23.1807 117.489 23.4736C117.44 23.7568 117.416 24.04 117.416 24.3232C117.416 24.499 117.431 24.6846 117.46 24.8799C117.499 25.0752 117.543 25.2607 117.592 25.4365ZM137.314 13.3369C137.314 13.4932 137.261 13.6201 137.153 13.7178C137.046 13.8057 136.914 13.8496 136.758 13.8496H129.331V14.0107C129.331 14.6064 129.287 15.2412 129.199 15.915C129.111 16.5889 128.989 17.2627 128.833 17.9365C128.687 18.6006 128.516 19.25 128.32 19.8848C128.135 20.5195 127.939 21.1055 127.734 21.6426C127.539 22.1797 127.344 22.6484 127.148 23.0488C126.953 23.4395 126.777 23.7324 126.621 23.9277C126.748 24.377 126.899 24.7969 127.075 25.1875C127.251 25.5684 127.446 25.9053 127.661 26.1982C127.886 26.4814 128.125 26.7061 128.379 26.8721C128.633 27.0381 128.906 27.1211 129.199 27.1211C129.541 27.1211 129.878 26.9795 130.21 26.6963C130.552 26.4033 130.864 26.0615 131.147 25.6709C131.44 25.2705 131.694 24.8701 131.909 24.4697C132.134 24.0596 132.295 23.7324 132.393 23.4883C132.49 23.2539 132.661 23.1367 132.905 23.1367C133.071 23.1367 133.203 23.1953 133.301 23.3125C133.408 23.4297 133.462 23.5566 133.462 23.6934C133.462 23.7617 133.447 23.8301 133.418 23.8984C133.389 23.9668 133.315 24.123 133.198 24.3672C133.091 24.6113 132.944 24.8945 132.759 25.2168C132.583 25.5391 132.373 25.8809 132.129 26.2422C131.895 26.5938 131.626 26.916 131.323 27.209C131.03 27.502 130.713 27.7461 130.371 27.9414C130.029 28.1367 129.668 28.2344 129.287 28.2344C128.613 28.2344 128.008 28.0146 127.471 27.5752C126.934 27.1357 126.475 26.5205 126.094 25.7295C125.723 24.9385 125.439 24.001 125.244 22.917C125.049 21.833 124.951 20.6465 124.951 19.3574C124.951 19.0352 124.956 18.6592 124.966 18.2295C124.976 17.79 124.995 17.3311 125.024 16.8525C125.054 16.3643 125.098 15.8662 125.156 15.3584C125.215 14.8408 125.293 14.3379 125.391 13.8496H120.132C119.976 13.8496 119.844 13.8057 119.736 13.7178C119.629 13.6201 119.575 13.4932 119.575 13.3369C119.575 13.1807 119.629 13.0586 119.736 12.9707C119.844 12.873 119.976 12.8242 120.132 12.8242H125.64C125.737 12.4727 125.85 12.1504 125.977 11.8574C126.113 11.5645 126.265 11.3105 126.431 11.0957C126.606 10.8809 126.797 10.7148 127.002 10.5977C127.217 10.4707 127.451 10.4072 127.705 10.4072C127.949 10.4072 128.159 10.4707 128.335 10.5977C128.521 10.7148 128.677 10.8809 128.804 11.0957C128.931 11.3105 129.028 11.5645 129.097 11.8574C129.175 12.1504 129.233 12.4727 129.272 12.8242H136.758C136.914 12.8242 137.046 12.873 137.153 12.9707C137.261 13.0586 137.314 13.1807 137.314 13.3369ZM126.284 22.4629C126.577 21.8184 126.841 21.125 127.075 20.3828C127.319 19.6309 127.524 18.874 127.69 18.1123C127.866 17.3506 127.998 16.6035 128.086 15.8711C128.184 15.1387 128.232 14.4648 128.232 13.8496H126.504C126.367 14.4551 126.255 15.207 126.167 16.1055C126.089 16.9941 126.05 18.0781 126.05 19.3574C126.05 20.0703 126.069 20.6709 126.108 21.1592C126.147 21.6377 126.206 22.0723 126.284 22.4629ZM127.646 11.5059C127.559 11.5059 127.432 11.6035 127.266 11.7988C127.1 11.9844 126.934 12.3262 126.768 12.8242H128.174C128.125 12.4141 128.052 12.0918 127.954 11.8574C127.866 11.623 127.764 11.5059 127.646 11.5059ZM126.519 23.5176V23.5322V23.5176ZM145.816 13.3369C145.816 13.4932 145.763 13.6201 145.655 13.7178C145.548 13.8057 145.416 13.8496 145.26 13.8496H137.833V14.0107C137.833 14.6064 137.789 15.2412 137.701 15.915C137.613 16.5889 137.491 17.2627 137.335 17.9365C137.188 18.6006 137.018 19.25 136.822 19.8848C136.637 20.5195 136.441 21.1055 136.236 21.6426C136.041 22.1797 135.846 22.6484 135.65 23.0488C135.455 23.4395 135.279 23.7324 135.123 23.9277C135.25 24.377 135.401 24.7969 135.577 25.1875C135.753 25.5684 135.948 25.9053 136.163 26.1982C136.388 26.4814 136.627 26.7061 136.881 26.8721C137.135 27.0381 137.408 27.1211 137.701 27.1211C138.043 27.1211 138.38 26.9795 138.712 26.6963C139.054 26.4033 139.366 26.0615 139.649 25.6709C139.942 25.2705 140.196 24.8701 140.411 24.4697C140.636 24.0596 140.797 23.7324 140.895 23.4883C140.992 23.2539 141.163 23.1367 141.407 23.1367C141.573 23.1367 141.705 23.1953 141.803 23.3125C141.91 23.4297 141.964 23.5566 141.964 23.6934C141.964 23.7617 141.949 23.8301 141.92 23.8984C141.891 23.9668 141.817 24.123 141.7 24.3672C141.593 24.6113 141.446 24.8945 141.261 25.2168C141.085 25.5391 140.875 25.8809 140.631 26.2422C140.396 26.5938 140.128 26.916 139.825 27.209C139.532 27.502 139.215 27.7461 138.873 27.9414C138.531 28.1367 138.17 28.2344 137.789 28.2344C137.115 28.2344 136.51 28.0146 135.973 27.5752C135.436 27.1357 134.977 26.5205 134.596 25.7295C134.225 24.9385 133.941 24.001 133.746 22.917C133.551 21.833 133.453 20.6465 133.453 19.3574C133.453 19.0352 133.458 18.6592 133.468 18.2295C133.478 17.79 133.497 17.3311 133.526 16.8525C133.556 16.3643 133.6 15.8662 133.658 15.3584C133.717 14.8408 133.795 14.3379 133.893 13.8496H128.634C128.478 13.8496 128.346 13.8057 128.238 13.7178C128.131 13.6201 128.077 13.4932 128.077 13.3369C128.077 13.1807 128.131 13.0586 128.238 12.9707C128.346 12.873 128.478 12.8242 128.634 12.8242H134.142C134.239 12.4727 134.352 12.1504 134.479 11.8574C134.615 11.5645 134.767 11.3105 134.933 11.0957C135.108 10.8809 135.299 10.7148 135.504 10.5977C135.719 10.4707 135.953 10.4072 136.207 10.4072C136.451 10.4072 136.661 10.4707 136.837 10.5977C137.022 10.7148 137.179 10.8809 137.306 11.0957C137.433 11.3105 137.53 11.5645 137.599 11.8574C137.677 12.1504 137.735 12.4727 137.774 12.8242H145.26C145.416 12.8242 145.548 12.873 145.655 12.9707C145.763 13.0586 145.816 13.1807 145.816 13.3369ZM134.786 22.4629C135.079 21.8184 135.343 21.125 135.577 20.3828C135.821 19.6309 136.026 18.874 136.192 18.1123C136.368 17.3506 136.5 16.6035 136.588 15.8711C136.686 15.1387 136.734 14.4648 136.734 13.8496H135.006C134.869 14.4551 134.757 15.207 134.669 16.1055C134.591 16.9941 134.552 18.0781 134.552 19.3574C134.552 20.0703 134.571 20.6709 134.61 21.1592C134.649 21.6377 134.708 22.0723 134.786 22.4629ZM136.148 11.5059C136.061 11.5059 135.934 11.6035 135.768 11.7988C135.602 11.9844 135.436 12.3262 135.27 12.8242H136.676C136.627 12.4141 136.554 12.0918 136.456 11.8574C136.368 11.623 136.266 11.5059 136.148 11.5059ZM135.021 23.5176V23.5322V23.5176ZM147.902 28.2051C148.244 27.8633 148.591 27.5166 148.942 27.165C149.294 26.8037 149.636 26.4277 149.968 26.0371C150.3 25.6465 150.607 25.2412 150.891 24.8213C151.184 24.3916 151.442 23.9375 151.667 23.459C151.716 23.3516 151.784 23.2734 151.872 23.2246C151.96 23.166 152.058 23.1367 152.165 23.1367C152.331 23.1367 152.463 23.1953 152.561 23.3125C152.668 23.4297 152.722 23.5615 152.722 23.708C152.722 23.7861 152.707 23.8594 152.678 23.9277C152.375 24.5625 152.028 25.1436 151.638 25.6709C151.247 26.1982 150.837 26.7012 150.407 27.1797C149.978 27.6484 149.543 28.1025 149.104 28.542C148.664 28.9912 148.244 29.4404 147.844 29.8896C147.805 30.5635 147.805 31.2373 147.844 31.9111C147.883 32.5947 147.902 33.3174 147.902 34.0791C147.902 34.7041 147.883 35.3291 147.844 35.9541C147.805 36.5791 147.741 37.1748 147.653 37.7412C147.565 38.3174 147.443 38.8545 147.287 39.3525C147.141 39.8506 146.95 40.2803 146.716 40.6416C146.481 41.0127 146.208 41.3008 145.896 41.5059C145.583 41.7207 145.217 41.8281 144.797 41.8281C144.104 41.8281 143.571 41.5889 143.2 41.1104C142.829 40.6318 142.644 39.9629 142.644 39.1035C142.644 38.6348 142.692 38.1318 142.79 37.5947C142.897 37.0576 143.044 36.501 143.229 35.9248C143.415 35.3584 143.635 34.7822 143.889 34.1963C144.152 33.6104 144.436 33.0391 144.738 32.4824C145.041 31.9258 145.363 31.3936 145.705 30.8857C146.047 30.3877 146.394 29.9336 146.745 29.5234C146.765 29.0547 146.784 28.5664 146.804 28.0586C146.833 27.5605 146.862 27.0967 146.892 26.667C146.638 27.1162 146.32 27.4775 145.939 27.751C145.568 28.0244 145.158 28.1611 144.709 28.1611C143.967 28.1611 143.386 27.9121 142.966 27.4141C142.546 26.916 142.336 26.2324 142.336 25.3633C142.336 24.7285 142.395 24.1523 142.512 23.6348C142.639 23.1074 142.771 22.6582 142.907 22.2871C143.054 21.9062 143.186 21.6182 143.303 21.4229C143.42 21.2178 143.479 21.1201 143.479 21.1299C143.586 20.9639 143.737 20.8809 143.933 20.8809C144.099 20.8809 144.23 20.9395 144.328 21.0566C144.436 21.1641 144.489 21.291 144.489 21.4375C144.489 21.5449 144.46 21.6426 144.401 21.7305C144.411 21.7207 144.362 21.8037 144.255 21.9795C144.157 22.1455 144.045 22.3896 143.918 22.7119C143.801 23.0342 143.688 23.4199 143.581 23.8691C143.483 24.3184 143.435 24.8115 143.435 25.3486C143.435 25.8857 143.532 26.3057 143.728 26.6084C143.923 26.9111 144.24 27.0625 144.68 27.0625C145.236 27.0625 145.739 26.6523 146.188 25.832C146.638 25.002 147.019 23.8008 147.331 22.2285C147.351 22.1016 147.409 21.999 147.507 21.9209C147.604 21.833 147.722 21.7891 147.858 21.7891C148.015 21.7891 148.146 21.8428 148.254 21.9502C148.361 22.0576 148.415 22.1895 148.415 22.3457C148.415 22.375 148.396 22.5508 148.356 22.873C148.317 23.1855 148.269 23.6055 148.21 24.1328C148.161 24.6602 148.107 25.2754 148.049 25.9785C147.99 26.6719 147.941 27.4141 147.902 28.2051ZM146.73 31.3105C146.291 31.9453 145.886 32.6143 145.515 33.3174C145.153 34.0205 144.841 34.7188 144.577 35.4121C144.313 36.1055 144.108 36.7695 143.962 37.4043C143.815 38.0391 143.742 38.6055 143.742 39.1035C143.742 39.6113 143.825 40.0068 143.991 40.29C144.157 40.583 144.421 40.7295 144.782 40.7295C145.104 40.7295 145.388 40.5684 145.632 40.2461C145.886 39.9336 146.096 39.4844 146.262 38.8984C146.438 38.3125 146.569 37.5996 146.657 36.7598C146.745 35.9297 146.789 34.9971 146.789 33.9619C146.789 33.542 146.779 33.1172 146.76 32.6875C146.75 32.2578 146.74 31.7988 146.73 31.3105Z" fill="#444444"/>
</svg>
